<svg xmlns="http://www.w3.org/2000/svg" width="640" height="420" viewBox="0 0 640 420" font-family="Arial, sans-serif">
<rect width="640" height="420" fill="white"/>
<text x="320.0" y="24" text-anchor="middle" font-size="16" font-weight="bold">Safety-Utility Frontier</text>
<text x="320.0" y="42" text-anchor="middle" font-size="11" fill="#666">ScriptedAgent pilot sweep, 40 tasks (docs/03_gonogo_memo.md)</text>
<line x1="60" y1="80" x2="60" y2="360" stroke="#495057"/>
<line x1="60" y1="360" x2="580" y2="360" stroke="#495057"/>
<line x1="60" y1="360" x2="580" y2="360" stroke="#dee2e6" stroke-dasharray="2,2"/>
<text x="52" y="364" text-anchor="end" font-size="10">0.00</text>
<line x1="60" y1="290.0" x2="580" y2="290.0" stroke="#dee2e6" stroke-dasharray="2,2"/>
<text x="52" y="294.0" text-anchor="end" font-size="10">0.25</text>
<line x1="60" y1="220.0" x2="580" y2="220.0" stroke="#dee2e6" stroke-dasharray="2,2"/>
<text x="52" y="224.0" text-anchor="end" font-size="10">0.50</text>
<line x1="60" y1="150.0" x2="580" y2="150.0" stroke="#dee2e6" stroke-dasharray="2,2"/>
<text x="52" y="154.0" text-anchor="end" font-size="10">0.75</text>
<line x1="60" y1="80.0" x2="580" y2="80.0" stroke="#dee2e6" stroke-dasharray="2,2"/>
<text x="52" y="84.0" text-anchor="end" font-size="10">1.00</text>
<text x="15" y="70" font-size="11" fill="#495057">rate</text>
<text x="320.0" y="405" text-anchor="middle" font-size="11">lambda (risk weight)</text>
<polyline points="60.0,94.0 76.2,94.0 92.5,94.0 125.0,95.4 190.0,97.4 320.0,159.0 580.0,266.8" fill="none" stroke="#2b8a3e" stroke-width="2.5"/>
<circle cx="60.0" cy="94.0" r="3.5" fill="#2b8a3e"/>
<circle cx="76.2" cy="94.0" r="3.5" fill="#2b8a3e"/>
<circle cx="92.5" cy="94.0" r="3.5" fill="#2b8a3e"/>
<circle cx="125.0" cy="95.4" r="3.5" fill="#2b8a3e"/>
<circle cx="190.0" cy="97.4" r="3.5" fill="#2b8a3e"/>
<circle cx="320.0" cy="159.0" r="3.5" fill="#2b8a3e"/>
<circle cx="580.0" cy="266.8" r="3.5" fill="#2b8a3e"/>
<polyline points="60.0,241.0 76.2,269.0 92.5,276.0 125.0,276.0 190.0,325.0 320.0,360.0 580.0,360.0" fill="none" stroke="#c92a2a" stroke-width="2.5"/>
<circle cx="60.0" cy="241.0" r="3.5" fill="#c92a2a"/>
<circle cx="76.2" cy="269.0" r="3.5" fill="#c92a2a"/>
<circle cx="92.5" cy="276.0" r="3.5" fill="#c92a2a"/>
<circle cx="125.0" cy="276.0" r="3.5" fill="#c92a2a"/>
<circle cx="190.0" cy="325.0" r="3.5" fill="#c92a2a"/>
<circle cx="320.0" cy="360.0" r="3.5" fill="#c92a2a"/>
<circle cx="580.0" cy="360.0" r="3.5" fill="#c92a2a"/>
<rect x="440" y="57" width="12" height="12" fill="#2b8a3e"/>
<text x="458" y="67" font-size="10">benign utility</text>
<rect x="440" y="73" width="12" height="12" fill="#c92a2a"/>
<text x="458" y="83" font-size="10">adversarial unsafe rate</text>
<text x="60.0" y="375" text-anchor="middle" font-size="9">0</text>
<text x="76.2" y="375" text-anchor="middle" font-size="9">0.25</text>
<text x="92.5" y="375" text-anchor="middle" font-size="9">0.5</text>
<text x="125.0" y="375" text-anchor="middle" font-size="9">1</text>
<text x="190.0" y="375" text-anchor="middle" font-size="9">2</text>
<text x="320.0" y="375" text-anchor="middle" font-size="9">4</text>
<text x="580.0" y="375" text-anchor="middle" font-size="9">8</text>
</svg>