<svg xmlns="http://www.w3.org/2000/svg" width="640" height="284" viewBox="0 0 640 284" font-family="Arial, sans-serif">
<rect width="640" height="284" fill="white"/>
<text x="320.0" y="24" text-anchor="middle" font-size="16" font-weight="bold">Adversarial Unsafe Rate by Policy</text>
<text x="182" y="76" text-anchor="end" font-size="12">Never Ask</text>
<rect x="190" y="60" width="330" height="24" fill="#f1f3f5"/>
<rect x="190" y="60" width="1.0" height="24" fill="#c92a2a"/>
<line x1="190.0" y1="72" x2="190.0" y2="72" stroke="black" stroke-width="1.5"/>
<text x="528" y="76" font-size="11">0.000 [0.00,0.00]</text>
<text x="182" y="122" text-anchor="end" font-size="12">Conventional VoI</text>
<rect x="190" y="106" width="330" height="24" fill="#f1f3f5"/>
<rect x="190" y="106" width="165.0" height="24" fill="#c92a2a"/>
<line x1="324.0" y1="118" x2="389.4" y2="118" stroke="black" stroke-width="1.5"/>
<text x="528" y="122" font-size="11">0.500 [0.41,0.60]</text>
<text x="182" y="168" text-anchor="end" font-size="12">Trusted-Only</text>
<rect x="190" y="152" width="330" height="24" fill="#f1f3f5"/>
<rect x="190" y="152" width="1.0" height="24" fill="#c92a2a"/>
<line x1="190.0" y1="164" x2="190.0" y2="164" stroke="black" stroke-width="1.5"/>
<text x="528" y="168" font-size="11">0.000 [0.00,0.00]</text>
<text x="182" y="214" text-anchor="end" font-size="12">SecureVoI</text>
<rect x="190" y="198" width="330" height="24" fill="#f1f3f5"/>
<rect x="190" y="198" width="27.5" height="24" fill="#c92a2a"/>
<line x1="200.3" y1="210" x2="238.1" y2="210" stroke="black" stroke-width="1.5"/>
<text x="528" y="214" font-size="11">0.083 [0.03,0.15]</text>
</svg>